<svg width="52" height="16" viewBox="0 0 52 16" fill="none" xmlns="http://www.w3.org/2000/svg">
<path d="M51.1754 7.73828L44.3698 14.5439L43.7848 13.374L49.0309 8.12891L49.4215 7.73828L43.7848 2.10156L44.3698 0.932617L51.1754 7.73828Z" fill="white"/>
<path d="M51.1754 7.73828L44.3698 14.5439L43.7848 13.374L49.0309 8.12891L49.4215 7.73828L43.7848 2.10156L44.3698 0.932617L51.1754 7.73828Z" stroke="white" stroke-width="1.10546"/>
<path d="M51.1754 7.73828L44.3698 14.5439L43.7848 13.374L49.0309 8.12891L49.4215 7.73828L43.7848 2.10156L44.3698 0.932617L51.1754 7.73828Z" stroke="black" stroke-opacity="0.2" stroke-width="1.10546"/>
<line x1="48.6402" y1="7.73827" x2="-1.15407e-05" y2="7.73827" stroke="white" stroke-width="2.21092"/>
<line x1="48.6402" y1="7.73827" x2="-1.15407e-05" y2="7.73827" stroke="black" stroke-opacity="0.2" stroke-width="2.21092"/>
</svg>
